<!DOCTYPE svg PUBLIC "-//W3C//DTD SVG 1.1//EN" "http://www.w3.org/Graphics/SVG/1.1/DTD/svg11.dtd">
<!-- Uploaded to: SVG Repo, www.svgrepo.com, Transformed by: SVG Repo Mixer Tools -->
<svg height="800px" width="800px" version="1.1" id="Layer_1" xmlns="http://www.w3.org/2000/svg" xmlns:xlink="http://www.w3.org/1999/xlink" viewBox="0 0 503.323 503.323" xml:space="preserve" fill="#000000">
<g id="SVGRepo_bgCarrier" stroke-width="0"/>
<g id="SVGRepo_tracerCarrier" stroke-linecap="round" stroke-linejoin="round"/>
<g id="SVGRepo_iconCarrier"> <g> <g> <path style="fill:#A5A5A5;" d="M251.662,269.018c-4.79,0-8.678-3.879-8.678-8.678v-34.712c0-4.799,3.888-8.678,8.678-8.678 s8.678,3.879,8.678,8.678v34.712C260.34,265.139,256.452,269.018,251.662,269.018"/> <path style="fill:#A5A5A5;" d="M277.696,269.018c0-14.379-11.655-26.034-26.034-26.034c-14.379,0-26.034,11.654-26.034,26.034 s11.655,26.034,26.034,26.034C266.041,295.052,277.696,283.397,277.696,269.018"/> </g> <path style="fill:#e0ded7;" d="M355.797,399.187c0-57.509-46.627-104.136-104.136-104.136s-104.136,46.627-104.136,104.136 c0,57.509,46.627,104.136,104.136,104.136S355.797,456.696,355.797,399.187"/> <path style="fill:#fbf9ee;" d="M182.238,407.865c-4.79,0-8.678-3.879-8.678-8.678c0-43.069,35.042-78.102,78.102-78.102 c4.79,0,8.678,3.879,8.678,8.678s-3.888,8.678-8.678,8.678c-33.497,0-60.746,27.258-60.746,60.746 C190.916,403.986,187.028,407.865,182.238,407.865"/> <path style="fill:#CA3E49;" d="M374.614,179.521l-122.949,46.106L165.848,23.031C161.952,11.759,170.326,0,182.249,0h135.203 c7.376,0,13.945,4.66,16.375,11.62l51.07,145.92C388.021,166.443,383.448,176.206,374.614,179.521"/> <path style="fill:#FFFFFF;" d="M338.8,192.951L269.02,0.005h-34.712l73.511,204.566L338.8,192.951z"/> <path style="fill:#9B2432;" d="M165.851,23.034c-0.781-2.265-0.963-4.53-0.816-6.725l-46.609,141.225 c-3.124,8.912,1.449,18.675,10.283,21.99l122.949,46.106L165.851,23.034z"/> <path style="fill:#FFFFFF;" d="M198.283,99.605l-33.757,93.349l30.98,11.611l21.678-60.329L198.283,99.605z"/> </g> </g>
</svg>